<?xml version="1.0" standalone="no"?>
<!DOCTYPE svg PUBLIC "-//W3C//DTD SVG 20010904//EN"
 "http://www.w3.org/TR/2001/REC-SVG-20010904/DTD/svg10.dtd">
<svg version="1.0" xmlns="http://www.w3.org/2000/svg"
 width="272.000000pt" height="185.000000pt" viewBox="0 0 272.000000 185.000000"
 preserveAspectRatio="xMidYMid meet">

<g transform="translate(0.000000,185.000000) scale(0.100000,-0.100000)"
fill="#000000" stroke="none">
<path d="M1765 1739 c-104 -22 -201 -46 -215 -52 -49 -25 -55 -58 -31 -171 26
-125 26 -126 -3 -126 -30 0 -56 -34 -56 -72 0 -31 31 -68 57 -68 14 0 13 -3
-5 -23 -12 -13 -22 -34 -22 -48 0 -30 26 -69 46 -69 18 0 18 -14 -1 -30 -30
-25 -6 -110 31 -110 19 0 18 -16 -1 -24 -23 -8 -19 -72 5 -96 11 -11 32 -20
48 -20 40 0 49 -10 57 -60 13 -81 39 -125 90 -156 27 -15 75 -35 109 -44 61
-17 61 -17 58 -51 -2 -19 -8 -39 -13 -45 -5 -6 -6 -25 -3 -43 l7 -31 -247 0
c-135 0 -246 3 -246 8 0 4 10 12 22 17 60 27 86 128 50 190 l-21 35 24 0 c33
0 32 20 -2 52 -46 43 -90 60 -146 57 l-51 -3 -12 70 c-6 39 -15 80 -18 92 -6
19 -4 22 16 20 21 -3 23 1 26 50 4 61 -10 73 -59 48 -30 -15 -33 -14 -61 5
-23 17 -46 22 -106 23 -78 2 -132 19 -132 42 0 7 -17 23 -37 35 l-37 23 28 7
c38 11 74 45 81 80 5 22 12 29 31 29 13 0 24 5 24 10 0 6 -11 10 -24 10 -19 0
-26 7 -31 30 -10 46 -30 60 -85 60 -59 0 -88 -21 -100 -73 -9 -41 7 -95 38
-129 14 -17 13 -18 -6 -18 -32 0 -88 -60 -102 -108 -10 -41 -13 -43 -43 -40
l-32 3 -3 163 -2 162 -120 0 -120 0 0 -25 c0 -23 -3 -25 -50 -25 -54 0 -63
-11 -29 -39 18 -15 20 -21 10 -39 -6 -12 -16 -22 -21 -22 -6 0 -10 -7 -10 -15
0 -13 14 -15 83 -13 l82 3 3 33 3 33 77 -3 77 -3 -1 -105 -2 -105 -106 -3
-106 -3 0 -44 c0 -25 5 -45 10 -45 6 0 10 -43 10 -110 l0 -110 34 0 c18 0 54
-3 79 -6 l46 -7 -14 -27 c-8 -16 -18 -54 -21 -85 -6 -52 -5 -57 15 -62 12 -3
29 -21 38 -40 9 -20 29 -43 45 -53 15 -9 25 -20 21 -24 -4 -3 -133 -6 -287 -6
-155 0 -287 0 -293 0 -7 0 -13 -4 -13 -10 0 -7 311 -10 914 -10 l914 0 10 -47
c6 -27 20 -96 33 -155 l22 -107 285 -3 c156 -2 285 -1 287 2 2 3 -9 66 -25
140 -16 74 -30 143 -30 153 0 14 9 17 60 17 33 0 60 4 60 10 0 6 -26 10 -57
10 -32 0 -63 4 -69 8 -6 4 -17 39 -24 77 -14 78 -26 108 -41 100 -5 -4 -9 1
-9 9 0 8 -7 22 -16 31 -11 11 -23 59 -35 143 -28 193 -56 298 -102 386 -43 80
-75 113 -102 102 -10 -3 -17 2 -20 17 -3 12 -25 118 -50 235 -25 117 -51 222
-57 232 -13 21 -51 40 -76 39 -9 0 -102 -18 -207 -40z m60 -79 c5 -9 -10 -14
-57 -22 -9 -2 -18 1 -20 7 -2 8 19 16 64 24 4 0 10 -3 13 -9z m-115 -30 c0 -5
-4 -10 -10 -10 -5 0 -10 5 -10 10 0 6 5 10 10 10 6 0 10 -4 10 -10z m343 -142
c38 -178 50 -248 45 -253 -2 -2 -44 -19 -93 -38 -85 -32 -90 -36 -90 -63 0
-23 7 -33 35 -46 39 -20 111 -24 141 -7 17 9 21 5 33 -23 14 -31 12 -37 -20
-104 l-34 -71 -157 -32 c-87 -18 -167 -35 -178 -38 -16 -5 -15 0 9 21 25 24
28 32 22 67 -5 31 -2 43 14 59 32 32 24 88 -16 115 -30 20 -30 21 -11 40 33
36 0 115 -48 115 -30 0 -37 10 -20 27 17 17 20 66 5 93 -6 11 -28 24 -49 30
-43 11 -47 18 -57 88 l-6 49 108 22 c60 13 154 33 209 46 55 12 107 23 116 24
13 1 22 -25 42 -121z m-398 -130 c40 -22 47 -64 15 -93 -29 -26 -143 -13 -176
20 -30 30 -30 49 -3 76 19 19 28 21 82 14 34 -3 70 -11 82 -17z m-697 0 c17
-17 15 -55 -4 -62 -9 -3 -40 -6 -70 -6 -51 0 -54 2 -54 24 0 14 10 32 22 40
27 19 89 21 106 4z m-318 -63 l0 -35 -100 0 -100 0 0 35 0 35 100 0 100 0 0
-35z m-219 -62 l5 -43 -34 0 c-33 0 -34 1 -19 18 21 23 21 31 0 55 -17 18 -17
19 12 15 27 -3 31 -7 36 -45z m548 8 c-16 -45 -83 -67 -109 -36 -9 11 -9 15
-1 15 7 0 23 11 36 24 22 23 60 37 77 29 4 -2 2 -16 -3 -32z m-509 -17 c0 -8
-4 -12 -10 -9 -5 3 -10 10 -10 16 0 5 5 9 10 9 6 0 10 -7 10 -16z m1277 -29
c19 -27 16 -52 -8 -76 -17 -17 -29 -20 -65 -15 -24 3 -65 9 -90 12 -57 8 -83
40 -65 80 16 36 43 42 134 29 57 -9 84 -17 94 -30z m481 33 c5 -7 28 -49 51
-93 30 -58 48 -112 66 -196 29 -139 54 -300 48 -315 -2 -6 -88 -28 -191 -49
-103 -20 -197 -40 -210 -42 -17 -4 -25 0 -29 15 -4 15 -18 24 -54 31 -27 6
-72 22 -99 36 -51 26 -73 47 -41 38 10 -3 85 9 165 26 80 17 148 31 150 31 2
0 5 40 8 88 3 78 8 96 39 153 35 62 36 65 22 104 -19 55 -24 58 -68 39 -24
-10 -51 -13 -72 -9 -35 6 -95 53 -78 61 6 3 57 24 115 48 109 45 160 55 178
34z m-527 -150 c55 -9 74 -16 86 -34 19 -30 14 -52 -17 -75 -23 -17 -30 -17
-110 -3 -62 10 -90 20 -102 35 -22 26 -22 38 -2 67 18 26 43 27 145 10z m-636
-32 c55 -9 65 -13 45 -19 -63 -17 -150 0 -150 31 0 10 5 12 18 7 9 -4 49 -13
87 -19z m115 -17 c0 -5 -7 -9 -15 -9 -15 0 -20 12 -9 23 8 8 24 -1 24 -14z
m-115 -24 c39 -2 78 -3 87 -4 29 -2 47 -43 59 -131 14 -100 -1 -208 -31 -235
-18 -17 -20 -15 -43 36 -13 30 -38 86 -56 124 l-32 71 -64 18 c-36 10 -68 23
-73 30 -5 6 -7 33 -4 59 l4 49 42 -7 c22 -4 73 -8 111 -10z m176 -38 c26 -50
59 -203 59 -274 0 -67 -15 -98 -59 -126 -31 -19 -53 -22 -162 -25 l-127 -4 -7
34 c-9 43 -32 88 -57 111 -46 45 -147 61 -198 32 -36 -20 -46 -18 -25 5 16 18
31 20 146 20 l129 0 -1 -60 c-2 -86 4 -90 121 -90 137 0 159 20 175 161 8 63
-9 189 -29 231 -14 27 -11 42 6 32 4 -3 18 -24 29 -47z m69 23 c0 -16 -4 -30
-9 -30 -22 0 -41 13 -41 29 0 23 9 31 32 31 13 0 18 -8 18 -30z m430 -60 c23
-12 27 -59 8 -78 -15 -15 -95 -16 -137 -1 -40 14 -51 51 -25 81 17 18 27 19
77 14 32 -3 67 -10 77 -16z m-1182 -92 l-3 -53 -35 0 -35 0 -3 53 -3 52 41 0
41 0 -3 -52z m182 1 c0 -5 -4 -9 -10 -9 -5 0 -10 7 -10 16 0 8 5 12 10 9 6 -3
10 -10 10 -16z m151 -45 c38 -8 69 -20 69 -25 0 -5 -65 -9 -150 -9 -153 0
-171 5 -138 38 17 17 136 15 219 -4z m1146 -11 c6 -16 -25 -31 -73 -35 -33 -3
-39 0 -39 17 0 12 9 22 25 26 36 10 83 6 87 -8z m-1009 -96 c23 -34 42 -66 42
-70 0 -4 -24 -7 -52 -5 l-53 3 -3 54 c-3 55 2 81 15 81 4 0 27 -29 51 -63z
m441 24 c17 -12 31 -25 31 -29 0 -4 -23 -8 -50 -10 -28 -2 -68 -9 -90 -17
l-40 -14 0 44 c0 25 5 46 13 49 26 12 105 -1 136 -23z m-658 -11 c19 -5 47
-22 62 -37 29 -32 61 -99 52 -113 -4 -6 -75 -10 -166 -10 -179 0 -175 -2 -140
76 35 76 107 108 192 84z m624 -105 c48 -47 22 -115 -44 -115 -68 0 -98 59
-55 109 32 38 66 40 99 6z m-185 -85 c0 -23 44 -77 71 -85 10 -4 17 -11 14
-16 -8 -13 -525 -12 -525 1 0 6 6 10 14 10 18 0 76 66 76 85 0 12 24 15 143
16 78 1 153 4 167 8 31 10 40 5 40 -19z m-511 -2 c15 -9 25 -9 46 0 39 18 50
15 30 -8 -27 -30 -115 -22 -115 10 0 13 16 12 39 -2z"/>
<path d="M660 630 c0 -6 37 -10 90 -10 53 0 90 4 90 10 0 6 -37 10 -90 10 -53
0 -90 -4 -90 -10z"/>
<path d="M630 580 c0 -6 47 -10 120 -10 73 0 120 4 120 10 0 6 -47 10 -120 10
-73 0 -120 -4 -120 -10z"/>
<path d="M1342 578 c-17 -17 -15 -42 6 -61 37 -34 76 -11 70 40 -2 23 -8 29
-33 31 -17 2 -36 -3 -43 -10z"/>
<path d="M280 660 c0 -6 31 -10 74 -10 41 0 78 5 81 10 4 6 -23 10 -74 10 -47
0 -81 -4 -81 -10z"/>
<path d="M183 583 c6 -9 115 -8 124 1 4 3 -24 6 -61 6 -37 0 -65 -3 -63 -7z"/>
<path d="M320 530 c0 -6 27 -10 60 -10 33 0 60 4 60 10 0 6 -27 10 -60 10 -33
0 -60 -4 -60 -10z"/>
</g>
</svg>
